<?xml version="1.0" encoding="utf-8"?>
<!-- Generator: Adobe Illustrator 25.3.0, SVG Export Plug-In . SVG Version: 6.00 Build 0)  -->
<svg version="1.1" id="Layer_1" xmlns="http://www.w3.org/2000/svg" xmlns:xlink="http://www.w3.org/1999/xlink" x="0px" y="0px"
	 viewBox="0 0 1000 1000" style="enable-background:new 0 0 1000 1000;" xml:space="preserve">
<style type="text/css">
	.st0{fill:#64FFDA;}
</style>
<g>
	<g>
		<path class="st0" d="M505.05,959.24c-21.82,0-43.64-5.46-63.26-16.42L153.8,782.02c-40.36-22.53-65.84-65.25-66.5-111.46
			l-4.73-329.81c-0.66-46.22,23.59-89.64,63.28-113.32L429.1,58.42c39.72-23.66,89.44-24.37,129.78-1.85l287.99,160.81
			c40.36,22.53,65.84,65.25,66.5,111.46l4.73,329.81c0.66,46.22-23.59,89.64-63.28,113.32L571.56,940.98
			C551.16,953.14,528.11,959.24,505.05,959.24z M495.62,88.3c-14.5,0-29,3.85-41.82,11.5L170.52,268.81
			c-24.96,14.88-40.2,42.18-39.78,71.24l4.73,329.81c0.42,29.06,16.44,55.92,41.81,70.09l287.99,160.81
			c25.39,14.17,56.64,13.72,81.6-1.18l283.26-169.01c24.97-14.88,40.21-42.18,39.79-71.24l-4.73-329.81
			c-0.42-29.06-16.44-55.92-41.81-70.09L535.4,98.62C523.06,91.74,509.33,88.3,495.62,88.3z"/>
	</g>
	<g>
		<g>
			<path class="st0" d="M685.21,574.56c-5.48-8.89-10.45-16.68-14.88-23.39c-4.44-6.7-8.93-12.71-13.46-18
				c-4.54-5.29-9.32-9.87-14.32-13.75c-5.01-3.87-10.91-7.32-17.72-10.34v-1.13c13.79-3.58,26.22-8.64,37.28-15.16
				c11.06-6.51,20.51-14.41,28.35-23.67c7.84-9.26,13.9-19.8,18.14-31.61c4.25-11.82,6.38-24.81,6.38-38.99
				c0-18.14-3.13-33.96-9.35-47.48c-6.24-13.51-14.89-24.81-25.95-33.88c-11.05-9.07-24.09-15.82-39.12-20.26
				c-15.03-4.44-31.42-6.66-49.19-6.66H470.04v202.05c-3.61-0.54-7.02-1.3-10.25-2.28c-7.09-2.17-13.71-5.62-19.84-10.34
				c-6.14-4.73-12.14-10.82-18-18.29c-5.86-7.47-11.9-16.49-18.14-27.07l-41.09-68.81l-1.65-2.77l-43.11-72.48h-57.59l18.74,30.11
				l20.06,32.22l2.01,3.22h0.01l54.13,86.74c5.48,8.88,10.45,16.67,14.88,23.38c4.45,6.71,8.93,12.71,13.47,18.01
				c4.54,5.29,9.3,9.87,14.31,13.75c5.01,3.88,10.91,7.32,17.72,10.34v1.08c-6.81,3.03-12.71,6.48-17.72,10.34
				c-5.01,3.88-9.78,8.47-14.31,13.75c-4.54,5.29-9.02,11.3-13.47,18c-4.44,6.71-9.4,14.5-14.88,23.39l-76.26,122.18h56.7
				l68.04-113.96c6.24-10.59,12.28-19.61,18.14-27.08c5.86-7.46,11.86-13.56,18-18.28c6.14-4.73,12.75-8.17,19.84-10.34
				c3.23-0.99,6.64-1.75,10.25-2.29v171.95h47.63V523.82h39.12c8.89,0,16.87,1.09,23.96,3.26c7.09,2.17,13.7,5.62,19.84,10.34
				c6.14,4.73,12.15,10.82,18,18.28c5.86,7.47,11.9,16.49,18.14,27.08l68.05,113.96h56.69L685.21,574.56z M615.33,475.34
				c-10.11,3.58-21.12,5.39-33.02,5.39h-64.64V333.31h65.2c26.64,0,47.01,6.09,61.09,18.28c14.08,12.19,21.12,29.15,21.12,50.89
				c0,12.09-2.08,23.01-6.23,32.74c-4.16,9.74-9.93,17.95-17.29,24.67C634.19,466.59,625.44,471.75,615.33,475.34z"/>
		</g>
	</g>
</g>
</svg>
